<?xml version="1.0"?>
<svg version="1.1" xmlns="http://www.w3.org/2000/svg" width="251" height="90" style=""><path fill="#" d="M20.375,64.78l0-23.22l-3.655-0.86l0-2.365l8.17-0.215l4.73,0c6.063,0,9.675,2.924,9.675,7.74c0,4.171-1.892,7.009-5.59,8.385c0.688,0.602,1.462,1.72,2.58,3.87l3.397,6.837l3.053,0.688l0,2.58l-6.45,0l-3.655-7.955c-2.021-4.3-2.967-5.16-5.805-5.16l-1.935,0l0,9.675l3.655,0.86l0,2.58l-11.825,0l0-2.58z M24.89,51.88l3.225,0c4.214,0,6.665-1.978,6.665-5.375c0-2.881-2.236-4.945-5.375-4.945l-4.515,0l0,10.32z M66.9698,57.47l-14.835,0c0,4.73,2.537,7.74,6.235,7.74c4.3,0,7.224-2.365,7.224-2.365l1.505,2.236s-3.999,3.569-9.159,3.569c-6.88,0-10.32-4.515-10.32-11.61c0-6.88,4.3-12.04,10.535-12.04s9.03,3.655,9.03,10.105c0,1.075-0.215,2.279-0.215,2.365z M52.3068,54.245l10.32,0c0-3.225-1.247-5.891-4.687-5.891s-5.375,2.666-5.633,5.891z M93.1396,57.47l-14.835,0c0,4.73,2.537,7.74,6.235,7.74c4.3,0,7.224-2.365,7.224-2.365l1.505,2.236s-3.999,3.569-9.159,3.569c-6.88,0-10.32-4.515-10.32-11.61c0-6.88,4.3-12.04,10.535-12.04s9.03,3.655,9.03,10.105c0,1.075-0.215,2.279-0.215,2.365z M78.4766,54.245l10.32,0c0-3.225-1.247-5.891-4.687-5.891s-5.375,2.666-5.633,5.891z M104.0444,45.645l0-2.58c0-5.16,2.795-8.385,7.955-8.385c4.085,0,6.45,1.505,6.45,1.505l0,5.375l-3.01,0l-0.645-3.44s-1.075-0.215-2.58-0.215c-3.01,0-3.87,1.72-3.87,4.3l0,3.44l5.676,0l-0.129,3.225l-5.547,0l0,15.91l4.3,1.075l0,2.365l-12.255,0l0-2.365l3.655-1.075l0-15.91l-3.87,0l0-2.795z M126.9892,35.11l0,12.384c1.419-1.118,3.655-2.494,6.45-2.494c6.235,0,9.03,4.515,9.03,11.18c0,7.31-4.085,12.47-11.825,12.47c-4.73,0-7.955-1.075-7.955-1.075l0-29.025l-3.44-0.86l0-2.365z M126.9892,51.235l0,13.545s1.118,0.43,4.3,0.43c4.988,0,6.665-3.87,6.665-8.6s-1.505-8.17-5.375-8.17s-5.59,2.795-5.59,2.795z M160.039,45c6.45,0,10.105,4.515,10.105,11.395c0,7.31-4.3,12.255-10.75,12.255s-10.32-3.87-10.32-11.61c0-7.31,4.515-12.04,10.965-12.04z M159.824,48.44c-4.3,0-6.235,2.795-6.235,8.385c0,5.16,1.72,8.385,6.02,8.385s6.02-3.01,6.02-8.6c0-4.73-1.505-8.17-5.805-8.17z M187.4988,45c6.45,0,10.105,4.515,10.105,11.395c0,7.31-4.3,12.255-10.75,12.255s-10.32-3.87-10.32-11.61c0-7.31,4.515-12.04,10.965-12.04z M187.2838,48.44c-4.3,0-6.235,2.795-6.235,8.385c0,5.16,1.72,8.385,6.02,8.385s6.02-3.01,6.02-8.6c0-4.73-1.505-8.17-5.805-8.17z M214.9586,54.03l3.225-5.418l-1.935-0.602l0-2.365l9.46-0.215l0,2.58l-3.053,0.516l-0.043,0l-4.429,6.579l5.547,9.675l0.043,0l3.225,1.075l0,2.365l-5.805,0l-6.149-10.965l-3.741,0l0,7.525l2.795,1.075l0,2.365l-10.75,0l0-2.365l3.655-1.075l0-26.23l-3.655-0.86l0-2.365l7.955-0.215l0,18.92l3.655,0z"/><path fill="#" d=""/></svg>
